<svg xmlns="http://www.w3.org/2000/svg" width="720" height="940" viewBox="0 0 720 940" role="img" aria-labelledby="title desc">
  <title id="title">micode system evidence</title>
  <desc id="desc">Mobile diagram of an auditable agent engineering workflow.</desc>
  <rect width="720" height="940" fill="#f2f1ed"/>
  <rect width="720" height="220" fill="#111111"/>
  <text x="42" y="55" fill="#d51f4b" font-family="Arial, Helvetica, sans-serif" font-size="25" font-weight="700">01 / AGENT ENGINEERING</text>
  <text x="42" y="135" fill="#ffffff" font-family="Arial Black, Arial, sans-serif" font-size="68" font-weight="900">micode</text>
  <text x="42" y="180" fill="#c9c7c0" font-family="Arial, Helvetica, sans-serif" font-size="27">Structured delivery for OpenCode</text>
  <text x="42" y="280" fill="#111111" font-family="Arial, Helvetica, sans-serif" font-size="27" font-weight="700">AN AUDITABLE DELIVERY PATH</text>
  <g font-family="Arial, Helvetica, sans-serif">
    <g fill="#ffffff" stroke="#111111" stroke-width="2">
      <rect x="42" y="330" width="282" height="112"/><rect x="396" y="330" width="282" height="112"/>
      <rect x="42" y="486" width="282" height="112"/><rect x="396" y="486" width="282" height="112"/>
    </g>
    <g fill="#111111" font-size="30" font-weight="700" text-anchor="middle">
      <text x="183" y="382">ALIGN</text><text x="537" y="382">PLAN</text><text x="183" y="538">BUILD</text><text x="537" y="538">REVIEW</text>
    </g>
    <g fill="#55524e" font-size="22" text-anchor="middle">
      <text x="183" y="416">scope + acceptance</text><text x="537" y="416">tasks + interfaces</text><text x="183" y="572">agents + integration</text><text x="537" y="572">tests + evidence</text>
    </g>
    <path d="M324 386H386" stroke="#d51f4b" stroke-width="4"/><path d="M537 442V476" stroke="#d51f4b" stroke-width="4"/><path d="M396 542H334" stroke="#d51f4b" stroke-width="4"/>
    <rect x="42" y="662" width="636" height="188" fill="#d51f4b"/>
    <text x="74" y="713" fill="#ffffff" font-size="26" font-weight="700">DURABLE CONTEXT</text>
    <text x="74" y="765" fill="#ffffff" font-size="29">Domain rules · Decisions</text>
    <text x="74" y="808" fill="#ffffff" font-size="29">Recovery state · Verification history</text>
    <text x="42" y="902" fill="#55524e" font-size="22">Based on vtemian/micode · substantially rebuilt</text>
  </g>
</svg>
