<svg xmlns="http://www.w3.org/2000/svg" width="720" height="1040" viewBox="0 0 720 1040" role="img" aria-labelledby="title desc">
  <title id="title">SpireVibePlaying system evidence</title>
  <desc id="desc">Mobile diagram of a hybrid deterministic and LLM-assisted decision pipeline.</desc>
  <rect width="720" height="1040" fill="#ffffff"/>
  <text x="42" y="58" fill="#d51f4b" font-family="Arial, Helvetica, sans-serif" font-size="25" font-weight="700">03 / HYBRID DECISION SYSTEM</text>
  <text x="42" y="132" fill="#111111" font-family="Arial Black, Arial, sans-serif" font-size="49" font-weight="900">SpireVibePlaying</text>
  <text x="42" y="180" fill="#55524e" font-family="Arial, Helvetica, sans-serif" font-size="25">Deterministic analysis first; LLM advice second.</text>
  <g font-family="Arial, Helvetica, sans-serif">
    <rect x="42" y="240" width="636" height="122" fill="#111111"/>
    <text x="72" y="282" fill="#d51f4b" font-size="23" font-weight="700">CAPTURE</text><text x="250" y="320" fill="#ffffff" font-size="34" font-weight="700">Game state</text>
    <path d="M360 362V397" stroke="#111111" stroke-width="4"/>
    <rect x="42" y="397" width="636" height="122" fill="#f2f1ed" stroke="#111111" stroke-width="2"/>
    <text x="72" y="439" fill="#d51f4b" font-size="23" font-weight="700">CALCULATE</text><text x="250" y="477" fill="#111111" font-size="34" font-weight="700">Draw probability</text>
    <path d="M360 519V554" stroke="#111111" stroke-width="4"/>
    <rect x="42" y="554" width="636" height="154" fill="#d51f4b"/>
    <text x="72" y="600" fill="#ffffff" font-size="23" font-weight="700">SOLVE</text><text x="250" y="646" fill="#ffffff" font-size="39" font-weight="700">DFS combat</text><text x="250" y="680" fill="#ffffff" font-size="24">multi-turn prediction</text>
    <path d="M360 708V743" stroke="#111111" stroke-width="4"/>
    <rect x="42" y="743" width="636" height="122" fill="#f2f1ed" stroke="#111111" stroke-width="2"/>
    <text x="72" y="785" fill="#d51f4b" font-size="23" font-weight="700">INTERPRET</text><text x="250" y="823" fill="#111111" font-size="34" font-weight="700">LLM explanation</text>
    <path d="M360 865V900" stroke="#111111" stroke-width="4"/>
    <rect x="42" y="900" width="636" height="98" fill="#111111"/>
    <text x="72" y="960" fill="#ffffff" font-size="32" font-weight="700">SHOW · In-game interface</text>
  </g>
</svg>
